<svg width="32" height="32" viewBox="0 0 32 32" fill="none" xmlns="http://www.w3.org/2000/svg">
<rect width="32" height="32" rx="2" fill="white"/>
<path fill-rule="evenodd" clip-rule="evenodd" d="M20.8585 13.143C19.754 13.143 18.8585 12.2476 18.8585 11.143V9.57006C18.8585 9.1754 19.1785 8.85547 19.5731 8.85547C19.9678 8.85547 20.2877 9.1754 20.2877 9.57006V11.7138H22.4315C22.8261 11.7138 23.1461 12.0338 23.1461 12.4284C23.1461 12.8231 22.8261 13.143 22.4315 13.143H20.8585ZM11.1417 18.8609C12.2463 18.8609 13.1417 19.7563 13.1417 20.8609V22.4338C13.1417 22.8285 12.8218 23.1484 12.4271 23.1484C12.0325 23.1484 11.7125 22.8285 11.7125 22.4338V20.2901H9.56878C9.17412 20.2901 8.85419 19.9701 8.85419 19.5755C8.85419 19.1808 9.17412 18.8609 9.56878 18.8609H11.1417ZM18.8585 20.8609C18.8585 19.7563 19.754 18.8609 20.8585 18.8609H22.4315C22.8261 18.8609 23.1461 19.1808 23.1461 19.5755C23.1461 19.9701 22.8261 20.2901 22.4315 20.2901H20.2877V22.4338C20.2877 22.8285 19.9678 23.1484 19.5731 23.1484C19.1785 23.1484 18.8585 22.8285 18.8585 22.4338V20.8609ZM13.1418 11.143C13.1418 12.2476 12.2464 13.143 11.1418 13.143H9.56884C9.17418 13.143 8.85425 12.8231 8.85425 12.4284C8.85425 12.0338 9.17418 11.7138 9.56884 11.7138H11.7126V9.57006C11.7126 9.1754 12.0325 8.85547 12.4272 8.85547C12.8219 8.85547 13.1418 9.1754 13.1418 9.57006V11.143Z" fill="#42464E"/>
</svg>
