<svg width="32" height="32" viewBox="0 0 32 32" fill="none" xmlns="http://www.w3.org/2000/svg">
<g clip-path="url(#clip0_5758_70490)">
<rect width="32" height="32" fill="white"/>
<path d="M17.0435 24.4046C16.5414 24.4081 16.0401 24.3652 15.5459 24.2766C14.4314 24.0672 13.4199 23.4885 12.6744 22.634C12.2293 22.099 11.8444 21.5167 11.5267 20.8974C11.42 20.7054 11.3134 20.5177 11.2024 20.33C10.7774 19.5972 10.3027 18.8944 9.78165 18.2265C9.24405 17.5566 8.65952 16.6521 8.88565 15.5897C8.94996 15.2817 9.08815 14.994 9.28832 14.7513C9.48849 14.5086 9.74464 14.3182 10.0347 14.1965C10.3248 14.0747 10.6401 14.0253 10.9535 14.0525C11.267 14.0796 11.5691 14.1825 11.8339 14.3524C11.936 14.4163 12.0343 14.4861 12.1283 14.5614V10.6873C12.1395 10.209 12.3397 9.75456 12.6852 9.42351C13.0306 9.09246 13.4931 8.91174 13.9715 8.9209C14.1729 8.92124 14.373 8.95291 14.5646 9.01476C14.6605 8.62183 14.8819 8.27088 15.1952 8.01506C15.5085 7.75923 15.8966 7.61249 16.3008 7.59706C16.705 7.58162 17.1032 7.69834 17.435 7.92952C17.7669 8.16071 18.0144 8.49376 18.14 8.87823C18.3416 8.80765 18.5537 8.77159 18.7672 8.77156C19.2456 8.76241 19.7081 8.94313 20.0536 9.27417C20.399 9.60522 20.5993 10.0596 20.6104 10.538V11.2676C20.792 11.2141 20.9802 11.1868 21.1694 11.1865C21.6597 11.17 22.1372 11.3452 22.5005 11.675C22.8638 12.0048 23.0842 12.4632 23.115 12.9529C23.115 13.0766 23.2259 16.49 23.115 18.1326C22.859 22.1177 20.6403 24.4046 17.0435 24.4046ZM10.7843 15.3252C10.6965 15.3257 10.6096 15.3431 10.5283 15.3764C10.4292 15.419 10.342 15.4852 10.2743 15.5692C10.2066 15.6532 10.1605 15.7526 10.14 15.8585C10.0248 16.3918 10.4003 16.9508 10.78 17.4286C11.3392 18.142 11.8481 18.8933 12.3032 19.6772L12.6446 20.2702C12.9218 20.809 13.2535 21.318 13.6344 21.7892C14.1914 22.4218 14.9411 22.8536 15.7678 23.018C16.1902 23.0935 16.6187 23.1292 17.0478 23.1246C20.7384 23.1246 21.6984 20.3641 21.8563 18.043C21.963 16.4686 21.8563 13.0084 21.8563 12.9742C21.8563 12.7097 21.5235 12.4665 21.1907 12.4665C21.0524 12.4582 20.9164 12.5046 20.8119 12.5955C20.7074 12.6865 20.6427 12.8148 20.6318 12.9529V16.2169C20.6318 16.3866 20.5644 16.5494 20.4443 16.6694C20.3243 16.7895 20.1615 16.8569 19.9918 16.8569C19.822 16.8569 19.6593 16.7895 19.5392 16.6694C19.4192 16.5494 19.3518 16.3866 19.3518 16.2169V10.538C19.3348 10.4005 19.2682 10.274 19.1645 10.1823C19.0607 10.0906 18.9271 10.04 18.7886 10.04C18.6501 10.04 18.5164 10.0906 18.4127 10.1823C18.3089 10.274 18.2423 10.4005 18.2254 10.538V16.2254C18.2254 16.3952 18.158 16.558 18.0379 16.678C17.9179 16.798 17.7551 16.8654 17.5854 16.8654C17.4156 16.8654 17.2529 16.798 17.1328 16.678C17.0128 16.558 16.9454 16.3952 16.9454 16.2254V9.3433C16.925 9.20905 16.8573 9.08655 16.7543 8.99802C16.6514 8.9095 16.5201 8.86082 16.3843 8.86082C16.2485 8.86082 16.1173 8.9095 16.0143 8.99802C15.9114 9.08655 15.8436 9.20905 15.8232 9.3433V16.2169C15.8232 16.3866 15.7558 16.5494 15.6358 16.6694C15.5158 16.7895 15.353 16.8569 15.1832 16.8569C15.0135 16.8569 14.8507 16.7895 14.7307 16.6694C14.6107 16.5494 14.5432 16.3866 14.5432 16.2169V10.6702C14.5263 10.5328 14.4597 10.4063 14.356 10.3146C14.2522 10.2229 14.1185 10.1722 13.98 10.1722C13.8416 10.1722 13.7079 10.2229 13.6041 10.3146C13.5004 10.4063 13.4338 10.5328 13.4168 10.6702V16.3022C13.4169 16.4712 13.35 16.6334 13.2309 16.7533C13.1118 16.8732 12.9501 16.9411 12.7811 16.9422C12.6491 16.9419 12.5204 16.9007 12.4127 16.8243C12.305 16.7479 12.2235 16.6401 12.1795 16.5156L12.124 16.4388C12.0387 16.3108 11.9491 16.187 11.8552 16.0633C11.6647 15.8058 11.4308 15.5835 11.164 15.4062C11.0481 15.3428 10.9161 15.3146 10.7843 15.3252Z" fill="#42464E"/>
</g>
<defs>
<clipPath id="clip0_5758_70490">
<rect width="32" height="32" fill="white"/>
</clipPath>
</defs>
</svg>
