<svg width="32" height="32" viewBox="0 0 32 32" fill="none" xmlns="http://www.w3.org/2000/svg">
<rect width="32" height="32" rx="2" fill="white"/>
<g clip-path="url(#clip0_5585_66571)">
<path fill-rule="evenodd" clip-rule="evenodd" d="M8.99878 11C8.99878 9.89543 9.89421 9 10.9988 9H12.4994C12.8861 9 13.1996 9.31346 13.1996 9.70013C13.1996 10.0868 12.8861 10.4003 12.4994 10.4003H10.399V12.5007C10.399 12.8873 10.0856 13.2008 9.69891 13.2008C9.31224 13.2008 8.99878 12.8873 8.99878 12.5007V11ZM23.0015 21.0037C23.0015 22.1083 22.106 23.0037 21.0015 23.0037H19.5008C19.1141 23.0037 18.8007 22.6902 18.8007 22.3036C18.8007 21.9169 19.1141 21.6034 19.5008 21.6034H21.6012V19.503C21.6012 19.1164 21.9147 18.8029 22.3013 18.8029C22.688 18.8029 23.0015 19.1164 23.0015 19.503V21.0037ZM10.9988 23.0037C9.89421 23.0037 8.99878 22.1083 8.99878 21.0037V19.503C8.99878 19.1164 9.31224 18.8029 9.69891 18.8029C10.0856 18.8029 10.399 19.1164 10.399 19.503V21.6034H12.4994C12.8861 21.6034 13.1996 21.9169 13.1996 22.3036C13.1996 22.6902 12.8861 23.0037 12.4994 23.0037H10.9988ZM21.0015 9C22.106 9 23.0015 9.89543 23.0015 11V12.5007C23.0015 12.8873 22.688 13.2008 22.3013 13.2008C21.9147 13.2008 21.6012 12.8873 21.6012 12.5007V10.4003H19.5008C19.1141 10.4003 18.8007 10.0868 18.8007 9.70013C18.8007 9.31346 19.1141 9 19.5008 9H21.0015Z" fill="#42464E"/>
</g>
<defs>
<clipPath id="clip0_5585_66571">
<rect width="20" height="20" fill="white" transform="translate(6 6)"/>
</clipPath>
</defs>
</svg>
